# xmcd
#
# Track frame offsets:
#	150
#	21015
#	36660
#	55192
#	67443
#	83806
#	98938
#	121810
#	139454
#	154474
#	171137
#	189276
#	210914
#	232374
#	248698
#
# Disc length: 3493 seconds
#
# Revision: 1
# Processed by: cddbd v1.5.2PL0 Copyright (c) Steve Scherf et al.
# Submitted via: audiograbber 1.83.01
#
DISCID=db0da30f
DTITLE=Dinei Rodrigues - Sem ter Você
DYEAR=1900
DGENRE=
TTITLE0=Asas pra Voar
TTITLE1=Quem teve Amor, teve Saudade
TTITLE2=Ela Bailava
TTITLE3=Ela não Chorou
TTITLE4=Loucura de Paixão
TTITLE5=Vem Diz pra Mim
TTITLE6=Volta pra Mim
TTITLE7=Mar de Rosas
TTITLE8=Não ter Tentado
TTITLE9=Dia de Folia
TTITLE10=Sem ter Você
TTITLE11=Pago Preço
TTITLE12=Como Eu Chorei
TTITLE13=Vai Começar de Novo
TTITLE14=Toca Toca Telefone
EXTD=
EXTT0=
EXTT1=
EXTT2=
EXTT3=
EXTT4=
EXTT5=
EXTT6=
EXTT7=
EXTT8=
EXTT9=
EXTT10=
EXTT11=
EXTT12=
EXTT13=
EXTT14=
PLAYORDER=
